<svg width="98" height="100" viewBox="0 0 98 100" fill="none" xmlns="http://www.w3.org/2000/svg">
<g clip-path="url(#clip0_1563_1296)">
<path d="M85.0315 18.3592C85.3025 19.855 84.8129 20.2853 84.8129 20.2853C84.8129 20.2853 84.4195 20.5229 84.0698 20.2033C83.7201 19.8837 84.0261 19.855 82.977 19.6706C81.9279 19.4861 81.9629 20.1951 81.4471 19.9164C80.9313 19.6378 80.8788 18.9739 79.786 18.9329C78.6932 18.8919 79.3139 19.4984 77.9501 19.6296C76.5863 19.7607 76.3983 18.9329 76.289 19.1378C76.1797 19.3427 75.9612 19.4657 76.2016 20.2443C76.442 21.0229 77.5173 21.1991 78.0375 21.1458C79.2483 21.0188 78.6976 20.482 80.2231 21.2688C81.7487 22.0597 81.7968 22.2113 81.7968 22.2113C81.7968 22.2113 81.6307 25.584 81.2722 36.4724C80.9138 47.3609 79.8909 42.3531 80.4417 47.1683C80.9968 52.0285 82.3606 56.5896 82.2339 62.4129C82.1071 68.2444 80.6602 72.4859 75.0651 78.2313C69.2513 84.198 60.0718 83.6407 60.0718 83.6407L60.0281 48.8895C60.0281 48.8895 57.2217 48.7747 49.1437 48.8485C41.0701 48.9222 39.3697 48.9878 39.3522 48.5206C39.3172 47.4756 38.1107 41.6646 35.9863 40.5705C33.8619 39.4763 34.3078 40.8204 34.4564 41.3901C34.675 42.2179 35.6323 44.7013 35.8552 45.9799C36.218 48.0617 35.8115 50.5287 33.9319 50.9795C32.0522 51.4302 30.8195 51.795 27.8559 50.5287C23.3972 48.6231 24.1753 45.8856 23.2661 47.3322C22.8858 47.9387 22.4793 48.3157 23.3535 50.1189C24.2277 51.922 25.7577 53.971 28.4678 54.8316C31.178 55.6922 33.8007 54.5037 33.8007 54.5037C33.8007 54.5037 33.8881 57.2494 33.8007 58.2329C33.5822 60.7164 33.7133 83.8046 33.7133 83.8046C33.7133 83.8046 30.7015 83.7104 26.8068 82.2883C21.8148 80.4647 17.9332 78.2108 14.3051 71.5515C8.03236 60.0443 16.5781 40.8368 17.9769 37.415C19.8653 32.7965 22.3569 25.6537 25.5828 19.0968C27.8821 14.421 31.7375 6.9462 33.2325 4.91768C35.7853 1.45895 38.4779 0.0410348 38.6528 0.0410348C41.564 0.0164466 47.1767 5.73729 47.1767 5.73729C47.1767 5.73729 52.5751 -0.0204356 55.0449 5.45594e-05C55.1367 5.45594e-05 58.4238 0.98358 61.0334 4.83572C63.6562 8.70835 68.9148 19.1788 69.9945 21.3917C71.131 23.7153 73.3035 30.2435 73.5789 29.5878C73.5789 29.5878 73.7974 18.6665 74.1908 16.9659C74.7635 14.4825 76.866 12.7941 79.8297 13.1137C82.7934 13.4334 84.7561 16.8634 85.0315 18.3592ZM66.6723 33.9727C66.8472 33.0506 66.0385 32.9277 63.6125 32.9072C61.1864 32.8867 60.3821 32.5998 60.251 33.7678C60.1199 34.9275 61.3788 34.8537 63.7873 34.9152C66.1915 34.9808 66.4975 34.8947 66.6723 33.9727ZM62.7382 30.3664C65.1205 29.6902 65.7544 29.1575 65.5795 28.5223C65.4047 27.8871 64.4211 27.7027 61.9951 28.3993C59.5691 29.096 58.979 29.4894 59.2806 30.3951C59.5778 31.2966 60.3515 31.0426 62.7382 30.3664ZM61.7766 22.7031C61.7766 21.2565 60.522 20.0804 58.979 20.0804C57.4359 20.0804 56.1814 21.2565 56.1814 22.7031C56.1814 24.1497 57.4359 25.3258 58.979 25.3258C60.522 25.3258 61.7766 24.1538 61.7766 22.7031ZM53.1652 33.6038C53.2964 33.0301 53.209 32.313 52.4658 32.1695C51.7227 32.0261 51.526 32.3744 50.1491 32.4564C48.7722 32.5383 49.1656 31.3048 47.1767 31.3499C45.297 31.3909 45.0785 32.5383 44.3791 32.6613C43.6797 32.7842 42.2809 32.4974 42.2809 32.4974C42.2809 32.4974 41.4023 32.3949 41.4067 33.317C41.411 33.7555 42.0405 35.325 44.1605 35.284C46.3024 35.243 46.368 34.4439 47.2204 34.4234C48.0728 34.4029 47.7231 35.1816 50.5862 35.1201C52.5314 35.0791 53.0341 34.1776 53.1652 33.6038ZM37.9971 22.4572C37.9971 21.0557 36.7819 19.9164 35.2869 19.9164C33.792 19.9164 32.5768 21.0557 32.5768 22.4572C32.5768 23.8587 33.792 24.998 35.2869 24.998C36.7819 24.998 37.9971 23.8628 37.9971 22.4572ZM33.827 30.6369C34.2466 30.0467 33.5122 29.3419 31.5277 28.4444C29.5825 27.5634 28.7082 27.1535 28.2493 28.0756C27.8427 28.8911 28.4547 29.5591 30.4349 30.4115C32.3932 31.2516 33.5079 31.0835 33.827 30.6369ZM32.8828 34.3825C33.145 33.358 32.1615 33.0916 30.4786 32.8252C28.7957 32.5588 28.2711 32.7228 27.987 33.6448C27.7029 34.5669 28.8175 34.8332 30.3037 35.0791C31.79 35.325 32.6205 35.407 32.8828 34.3825Z" fill="#6774FF"/>
<path d="M55.4365 54.2988V78.0674H38.4762L38.0391 54.2988H55.4365Z" fill="#6774FF"/>
<path d="M47.0248 84.2555C48.1474 84.2555 49.0574 83.4023 49.0574 82.3499C49.0574 81.2975 48.1474 80.4443 47.0248 80.4443C45.9022 80.4443 44.9922 81.2975 44.9922 82.3499C44.9922 83.4023 45.9022 84.2555 47.0248 84.2555Z" fill="#6774FF"/>
<path d="M7.93377 98.5121H9.52052V99.9997H7.93377H6.34702H4.76026H3.17351H1.58676H0V98.5121V97.0245V95.537V94.0494V92.5618V91.0742H1.58676H3.17351V92.5618V94.0494V95.537V97.0245V98.5121H4.76026H6.34702H7.93377Z" fill="#6774FF"/>
<path d="M17.4486 99.9997H15.8618H14.2751H12.6883V98.5121H11.1016V97.0245V95.537V94.0494V92.5618V91.0742H12.6883H14.2751V92.5618V94.0494V95.537V97.0245V98.5121H15.8618H17.4486V97.0245V95.537V94.0494V92.5618V91.0742H19.0353H20.6221V92.5618V94.0494V95.537V97.0245V98.5121H19.0353V99.9997H17.4486Z" fill="#6774FF"/>
<path d="M28.5458 99.9997H26.959H25.3723H23.7899V98.5121H22.2031V97.0245V95.537V94.0494V92.5618H23.7899V91.0742H25.3766H26.9634H28.5501H30.1369V92.5618H31.7236V94.0494H30.1369H28.5501V92.5618H26.9634H25.3766V94.0494V95.537V97.0245V98.5121H26.9634H28.5501V97.0245H30.1369H31.7236V98.5121H30.1369V99.9997H28.5458Z" fill="#6774FF"/>
<path d="M41.2306 99.9997H39.6439V98.5121H38.0571V97.0245H36.4704V98.5121V99.9997H34.8836H33.2969V98.5121V97.0245V95.537V94.0494V92.5618V91.0742H34.8836H36.4704V92.5618V94.0494H38.0571V92.5618H39.6439V91.0742H41.2306H42.8174V92.5618H41.2306V94.0494H39.6439V95.537V97.0245H41.2306V98.5121H42.8174V99.9997H41.2306Z" fill="#6774FF"/>
<path d="M49.1587 99.9997H47.5719V98.5121V97.0245H45.9852V95.537H44.3984V94.0494V92.5618V91.0742H45.9852H47.5719V92.5618V94.0494V95.537H49.1587H50.7455V94.0494V92.5618V91.0742H52.3322H53.919V92.5618V94.0494V95.537H52.3322V97.0245H50.7455V98.5121V99.9997H49.1587Z" fill="#6774FF"/>
<path d="M73.3474 99.9997H71.7606V98.5121H70.1739V97.0245H68.5915V98.5121V99.9997H67.0047H65.418V98.5121V97.0245V95.537V94.0494V92.5618V91.0742H67.0047H68.5915V92.5618V94.0494H70.1782V92.5618H71.765V91.0742H73.3517H74.9385V92.5618H73.3517V94.0494H71.765V95.537V97.0245H73.3517V98.5121H74.9385V99.9997H73.3474Z" fill="#6774FF"/>
<path d="M84.4455 99.9997H82.8587V98.5121V97.0245H81.272H79.6852V98.5121V99.9997H78.0985H76.5117V98.5121V97.0245V95.537V94.0494V92.5618H78.0985V91.0742H79.6852H81.272H82.8587H84.4455V92.5618H86.0323V94.0494V95.537V97.0245V98.5121V99.9997H84.4455ZM81.2764 95.537H82.8631V94.0494V92.5618H81.2764H79.6896V94.0494V95.537H81.2764Z" fill="#6774FF"/>
<path d="M92.3775 99.9997H90.7907V98.5121V97.0245V95.537V94.0494V92.5618H89.2039H87.6172V91.0742H89.2039H90.7907H92.3775H93.9642H95.551H97.1377V92.5618H95.551H93.9642V94.0494V95.537V97.0245V98.5121V99.9997H92.3775Z" fill="#6774FF"/>
<path d="M61.8302 93.6191H57.7344V97.459H61.8302V93.6191Z" fill="#6774FF"/>
</g>
<defs>
<clipPath id="clip0_1563_1296">
<rect width="97.1373" height="100" fill="white"/>
</clipPath>
</defs>
</svg>
